# xmcd CD database file
#
# Track frame offsets:
#	150
#	12690
#	27940
#	45302
#	57567
#	74115
#	87657
#	101735
#	116847
#	135367
#
# Disc length: 2014 seconds
#
# Revision: 2
# Processed by: cddbd v1.4PL0 Copyright (c) Steve Scherf et al.
# Submitted via: CDex 1.50beta9
#
DISCID=9307dc0a
DTITLE=John Anderson - Paradise
DYEAR=1996
DGENRE=Country
TTITLE0=Paradise
TTITLE1=Long Hard Lesson Learned
TTITLE2=The Band Plays On
TTITLE3=My Kind Of Crazy
TTITLE4=Let The Guitar Do The Talkin'
TTITLE5=30,000 Feet
TTITLE6=It Wouldn't Kill Me
TTITLE7=Love Comes Back Around
TTITLE8=Bad Weather
TTITLE9=They Spent Forever
EXTD=YEAR: 1996
EXTT0=
EXTT1=
EXTT2=
EXTT3=
EXTT4=
EXTT5=
EXTT6=
EXTT7=
EXTT8=
EXTT9=
PLAYORDER=
